<svg xmlns="http://www.w3.org/2000/svg" xmlns:xlink="http://www.w3.org/1999/xlink" version="1.1" x="0px" y="0px" viewBox="0 0 2048 2560" style="enable-background:new 0 0 2048 2048;" xml:space="preserve"><g><path d="M1013.9,605.45H527.68c-13.26,0-24-10.74-24-24V464.67c0-36.93,30.05-66.98,66.98-66.98h70.65c13.26,0,24,10.74,24,24   s-10.74,24-24,24h-70.65c-10.47,0-18.98,8.51-18.98,18.98v92.78H989.9v-92.78c0-10.47-8.51-18.98-18.98-18.98h-70.65   c-13.26,0-24-10.74-24-24s10.74-24,24-24h70.65c36.93,0,66.98,30.05,66.98,66.98v116.78   C1037.9,594.71,1027.15,605.45,1013.9,605.45z"/><path d="M1261.58,1723.38H280c-13.26,0-24-10.74-24-24V500.05c0-13.26,10.74-24,24-24h247.68c13.26,0,24,10.74,24,24   s-10.74,24-24,24H304v1151.33h933.58v-153.69c0-13.26,10.74-24,24-24s24,10.74,24,24v177.69   C1285.58,1712.64,1274.83,1723.38,1261.58,1723.38z"/><path d="M1261.58,719.83c-13.26,0-24-10.74-24-24V524.05H1013.9c-13.26,0-24-10.74-24-24s10.74-24,24-24h247.68   c13.26,0,24,10.74,24,24v195.78C1285.58,709.09,1274.83,719.83,1261.58,719.83z"/><path d="M900.27,496.97H641.31c-13.26,0-24-10.74-24-24V368.62c0-24.26,19.74-44,44-44h218.96c24.26,0,44,19.74,44,44v104.35   C924.27,486.23,913.53,496.97,900.27,496.97z M665.31,448.97h210.96v-76.35H665.31V448.97z"/><g><g><path d="M938.25,836.87H644.72c-13.26,0-24-10.74-24-24s10.74-24,24-24h293.53c13.26,0,24,10.74,24,24     S951.51,836.87,938.25,836.87z"/><path d="M449.44,858.57c-6.14,0-12.28-2.34-16.97-7.03L395,814.07c-9.37-9.37-9.37-24.57,0-33.94c9.37-9.37,24.57-9.37,33.94,0     l20.5,20.5l69.82-69.82c9.37-9.37,24.57-9.37,33.94,0c9.37,9.37,9.37,24.57,0,33.94l-86.79,86.79     C461.72,856.23,455.58,858.57,449.44,858.57z"/></g><g><path d="M818.7,1069.63H644.72c-13.26,0-24-10.74-24-24s10.74-24,24-24H818.7c13.26,0,24,10.74,24,24     S831.96,1069.63,818.7,1069.63z"/><path d="M449.44,1091.33L449.44,1091.33c-6.37,0-12.47-2.53-16.97-7.03L395,1046.82c-9.37-9.37-9.37-24.57,0.01-33.94     s24.57-9.37,33.94,0.01l20.5,20.5l69.82-69.82c9.37-9.37,24.57-9.37,33.94,0c9.37,9.37,9.37,24.57,0,33.94l-86.79,86.79     C461.91,1088.8,455.8,1091.33,449.44,1091.33z"/></g><g><path d="M850.14,1302.38H644.72c-13.26,0-24-10.74-24-24s10.74-24,24-24h205.42c13.26,0,24,10.74,24,24     S863.4,1302.38,850.14,1302.38z"/><path d="M449.44,1324.08c-6.14,0-12.28-2.34-16.97-7.03L395,1279.58c-9.37-9.37-9.37-24.57,0-33.94s24.57-9.37,33.94,0l20.5,20.5     l69.82-69.82c9.37-9.37,24.57-9.37,33.94,0s9.37,24.57,0,33.94l-86.79,86.79C461.72,1321.74,455.58,1324.08,449.44,1324.08z"/></g><g><path d="M920.94,1535.14H644.72c-13.26,0-24-10.74-24-24s10.74-24,24-24h276.22c13.26,0,24,10.74,24,24     S934.2,1535.14,920.94,1535.14z"/><path d="M449.44,1556.84C449.44,1556.84,449.44,1556.84,449.44,1556.84c-6.37,0-12.47-2.53-16.97-7.03L395,1512.33     c-9.37-9.37-9.37-24.57,0-33.94c9.37-9.37,24.57-9.37,33.94,0l20.5,20.51l69.82-69.82c9.37-9.37,24.57-9.37,33.94,0     s9.37,24.57,0,33.94l-86.79,86.79C461.91,1554.31,455.8,1556.84,449.44,1556.84z"/></g></g><g><path d="M1228.19,1547.03c-59.16,0-116.55-11.59-170.6-34.45c-52.19-22.07-99.06-53.67-139.3-93.92s-71.84-87.11-93.91-139.3    c-22.86-54.05-34.45-111.45-34.45-170.6s11.59-116.55,34.45-170.6c22.08-52.19,53.67-99.06,93.91-139.3s87.11-71.84,139.3-93.91    c54.05-22.86,111.45-34.45,170.6-34.45s116.56,11.59,170.6,34.45c52.19,22.08,99.06,53.67,139.3,93.91s71.84,87.11,93.92,139.3    c22.86,54.05,34.45,111.45,34.45,170.6s-11.59,116.56-34.45,170.6c-22.07,52.19-53.67,99.06-93.92,139.3s-87.11,71.84-139.3,93.92    C1344.74,1535.44,1287.34,1547.03,1228.19,1547.03z M1228.19,718.49c-215.2,0-390.27,175.07-390.27,390.27    s175.07,390.27,390.27,390.27s390.27-175.07,390.27-390.27C1618.46,893.56,1443.39,718.49,1228.19,718.49z"/><path d="M1228.19,1407.82c-79.89,0-154.99-31.11-211.47-87.59c-56.48-56.48-87.59-131.58-87.59-211.47    c0-79.89,31.11-154.99,87.59-211.47c56.48-56.48,131.59-87.59,211.47-87.59c79.89,0,154.99,31.11,211.47,87.59    c56.48,56.48,87.59,131.59,87.59,211.47c0,79.89-31.11,154.99-87.59,211.47C1383.18,1376.71,1308.08,1407.82,1228.19,1407.82z     M1228.19,857.7c-67.06,0-130.11,26.11-177.53,73.53c-47.42,47.42-73.53,110.46-73.53,177.53c0,67.06,26.11,130.11,73.53,177.53    c47.42,47.42,110.46,73.53,177.53,73.53c67.06,0,130.11-26.11,177.53-73.53c47.42-47.42,73.53-110.46,73.53-177.53    c0-67.06-26.11-130.11-73.53-177.53C1358.3,883.81,1295.26,857.7,1228.19,857.7z"/><path d="M1228.19,1268.62c-21.36,0-41.96-4.05-61.23-12.03c-19.27-7.98-36.7-19.69-51.81-34.8    c-15.11-15.11-26.81-32.54-34.79-51.81c-7.98-19.27-12.03-39.87-12.03-61.23s4.05-41.96,12.03-61.23    c7.98-19.27,19.69-36.7,34.79-51.81c15.11-15.11,32.54-26.81,51.81-34.79c19.27-7.98,39.87-12.03,61.23-12.03    c21.36,0,41.96,4.05,61.23,12.03c19.27,7.98,36.7,19.69,51.81,34.79c15.11,15.11,26.81,32.54,34.79,51.81s12.03,39.87,12.03,61.23    c0,21.36-4.05,41.96-12.03,61.23c-7.98,19.27-19.68,36.7-34.79,51.81c-15.11,15.11-32.54,26.81-51.81,34.79    C1270.16,1264.57,1249.56,1268.62,1228.19,1268.62z M1228.19,996.9c-15.02,0-29.45,2.82-42.87,8.38    c-13.41,5.55-25.6,13.76-36.23,24.39c-10.63,10.63-18.83,22.82-24.39,36.23c-5.56,13.42-8.38,27.84-8.38,42.87    c0,15.03,2.82,29.45,8.37,42.87c5.55,13.41,13.76,25.6,24.39,36.23c10.63,10.63,22.81,18.83,36.23,24.39    c13.42,5.56,27.84,8.38,42.87,8.38c15.03,0,29.45-2.82,42.86-8.37c13.42-5.56,25.61-13.76,36.23-24.39    c10.63-10.63,18.83-22.82,24.39-36.23c5.56-13.42,8.38-27.84,8.38-42.87s-2.82-29.45-8.37-42.87    c-5.56-13.42-13.76-25.6-24.39-36.23c-10.63-10.63-22.82-18.83-36.23-24.39C1257.64,999.72,1243.21,996.9,1228.19,996.9z"/><g><path d="M1228.19,1132.76c-6.14,0-12.28-2.34-16.97-7.03c-9.37-9.37-9.37-24.57,0-33.94l390.26-390.25     c9.37-9.37,24.57-9.37,33.94,0c9.37,9.37,9.37,24.57,0,33.94l-390.26,390.25C1240.47,1130.42,1234.33,1132.76,1228.19,1132.76z"/><path d="M1618.45,742.51c-6.35,0-12.46-2.52-16.97-7.03c-4.85-4.85-7.39-11.54-6.99-18.38l4.38-74.37     c0.34-5.87,2.83-11.4,6.99-15.56l75.19-75.19c7.05-7.05,17.72-9,26.8-4.92c9.09,4.08,14.71,13.36,14.13,23.3l-2.79,47.41     l47.4-2.79c9.96-0.58,19.22,5.04,23.31,14.13c4.08,9.09,2.12,19.76-4.92,26.8l-75.19,75.19c-4.16,4.16-9.69,6.64-15.56,6.99     l-74.36,4.38C1619.39,742.5,1618.92,742.51,1618.45,742.51z M1692.81,714.13h0.01H1692.81z M1646.25,654.66l-2.26,38.3l38.3-2.26     l24.1-24.1l-11.34,0.67c-6.86,0.41-13.53-2.14-18.38-6.99c-4.85-4.85-7.39-11.54-6.99-18.38l0.67-11.35L1646.25,654.66z"/></g></g></g><text x="0" y="2063" fill="#000000" font-size="5px" font-weight="bold" font-family="'Helvetica Neue', Helvetica, Arial-Unicode, Arial, Sans-serif">Created by Iconbunny</text><text x="0" y="2068" fill="#000000" font-size="5px" font-weight="bold" font-family="'Helvetica Neue', Helvetica, Arial-Unicode, Arial, Sans-serif">from the Noun Project</text></svg>