<!DOCTYPE svg PUBLIC "-//W3C//DTD SVG 1.1//EN" "http://www.w3.org/Graphics/SVG/1.1/DTD/svg11.dtd">
<!-- Uploaded to: SVG Repo, www.svgrepo.com, Transformed by: SVG Repo Mixer Tools -->
<svg fill="#FFFFFF" version="1.1" id="Layer_1" xmlns="http://www.w3.org/2000/svg" xmlns:xlink="http://www.w3.org/1999/xlink" width="75px" height="75px" viewBox="0 0 260 244" enable-background="new 0 0 260 244" xml:space="preserve">
<g id="SVGRepo_bgCarrier" stroke-width="0"/>
<g id="SVGRepo_tracerCarrier" stroke-linecap="round" stroke-linejoin="round"/>
<g id="SVGRepo_iconCarrier"> <polygon points="70.067,190.289 70.067,198.219 63.458,204.828 51.563,190.289 51.563,181.698 22.156,168.481 12.494,128.164 13.526,97.904 3.783,87.567 2,46.886 48.259,29.704 65.771,12.192 103.77,2.165 111.039,21.774 132.186,31.026 145.403,23.096 222.061,24.418 235.938,33.009 248.825,97.771 235.071,103.595 227.678,115.944 241.225,122.222 239.904,153.943 258,180.096 216.774,223.992 215.452,241.835 200.253,238.531 189.019,229.279 144.081,241.835 133.508,225.314 121.613,227.957 110.378,212.097 "/> </g>
</svg>