<!DOCTYPE svg PUBLIC "-//W3C//DTD SVG 1.1//EN" "http://www.w3.org/Graphics/SVG/1.1/DTD/svg11.dtd">
<!-- Uploaded to: SVG Repo, www.svgrepo.com, Transformed by: SVG Repo Mixer Tools -->
<svg fill="#FFFFFF" version="1.1" id="Capa_1" xmlns="http://www.w3.org/2000/svg" xmlns:xlink="http://www.w3.org/1999/xlink" width="75px" height="75px" viewBox="0 0 88.09 88.09" xml:space="preserve">
<g id="SVGRepo_bgCarrier" stroke-width="0"/>
<g id="SVGRepo_tracerCarrier" stroke-linecap="round" stroke-linejoin="round"/>
<g id="SVGRepo_iconCarrier"> <g> <path d="M2,88.09h84.09c1.104,0,2-0.896,2-2V2c0-1.104-0.896-2-2-2H2C0.896,0,0,0.896,0,2v84.09C0,87.194,0.895,88.09,2,88.09z M30.357,25.628c-1.271-3.982-1.317-6.822-0.134-8.44c0.745-1.021,1.933-1.538,3.53-1.538c1.063,0,2.125,0.232,2.936,0.471 c-1.746-2.812-2.213-5.04-1.39-6.635c1.697-3.285,8.2-2.611,9.633-2.423l2.1-2.517c2.062-2.45,3.877-3.691,5.396-3.691 c1.493,0,2.167,1.158,2.314,1.455c1.061,1.349,2.199,2.034,3.385,2.034c0.915,0,1.537-0.426,1.543-0.43 c0.048-0.033,0.104-0.06,0.16-0.075c2.279-0.589,3.96-0.271,4.958,0.917c1.329,1.583,0.903,4.119,0.886,4.226 c-0.011,0.058-0.031,0.114-0.061,0.164c-0.821,1.397-0.912,3.741-0.918,4.566c3.836,1.812,5.23,3.338,5.436,3.577 c1.652,1.569,2.286,3.057,1.887,4.42c-0.598,2.033-3.39,3.165-5.123,3.684l3.079,1.385c0.175,0.078,0.286,0.25,0.289,0.442 c0.003,0.19-0.106,0.365-0.278,0.448c-5.146,2.474-4.978,8.585-4.959,8.997l3.705,22.447c0.022,0.142-0.018,0.288-0.111,0.396 c-0.092,0.111-0.229,0.174-0.375,0.174H20.57c-0.266,0-0.483-0.211-0.491-0.477c-0.211-7.081,10.838-24.711,12.18-26.826 C32.01,31.441,30.976,27.568,30.357,25.628z M13.139,67.398c-0.066-0.297,0.006-0.606,0.196-0.844 c0.19-0.236,0.477-0.375,0.78-0.375h4.144v-3.776c0-0.552,0.448-1,1-1h50.81c0.553,0,1,0.448,1,1v3.776h4.145 c0.303,0,0.59,0.139,0.779,0.375c0.191,0.237,0.263,0.547,0.197,0.844l-1.343,6.014l1.312,3.842 c0.104,0.305,0.056,0.643-0.133,0.904c-0.188,0.264-0.49,0.418-0.812,0.418H64.925c-0.552,0-1-0.447-1-1v-3.107H25.402v3.107 c0,0.553-0.448,1-1,1H14.115c-0.323,0-0.625-0.156-0.813-0.418s-0.237-0.6-0.133-0.904l1.312-3.842L13.139,67.398z"/> <path d="M63.287,18.082h0.27c0.27-0.001,0.488-0.221,0.488-0.491v-2.694c0-0.269-0.217-0.489-0.486-0.491 c-0.125,0-12.519-0.177-18.642-5.869c-0.113-0.104-0.269-0.149-0.421-0.124c-0.152,0.027-0.282,0.125-0.352,0.262l-1.103,2.182 c-0.08,0.158-0.068,0.346,0.029,0.494C43.252,11.626,47.712,18.082,63.287,18.082z"/> <path d="M57.402,35.128l-1.201,5.41c-0.059,0.265,0.107,0.526,0.373,0.585c0.037,0.008,0.072,0.012,0.106,0.012 c0.226,0,0.429-0.155,0.479-0.384l1.309-5.892c0.028-0.127,0.005-0.262-0.066-0.373c-0.07-0.11-0.183-0.187-0.312-0.214 c-0.276-0.057-27.545-5.9-25.802-15.028c0.087-0.455,0.256-0.737,0.546-0.914c0.718-0.438,2.263-0.301,4.726,0.42 c0.261,0.076,0.533-0.072,0.609-0.333c0.077-0.261-0.073-0.534-0.333-0.609c-2.82-0.826-4.521-0.924-5.514-0.316 c-0.531,0.325-0.857,0.837-0.997,1.568C29.518,28.519,53.529,34.265,57.402,35.128z"/> <path d="M16.464,73.793l-0.951,2.784h7.888v-2.106h-4.143c-0.552,0-1-0.448-1-1v-5.289h-2.896l1.131,5.07 C16.534,73.432,16.524,73.618,16.464,73.793z"/> <path d="M50.354,25.667h-5.771c-0.27,0-0.491,0.22-0.491,0.49c0,1.558,1.353,2.112,2.065,2.188 c0.018,0.001,0.035,0.002,0.053,0.002c2.338,0,4.382-1.745,4.467-1.82c0.156-0.134,0.21-0.351,0.139-0.542 C50.742,25.794,50.561,25.667,50.354,25.667z"/> <path d="M44.741,19.56c-0.257-0.087-0.536,0.05-0.623,0.306c-0.088,0.257,0.049,0.536,0.306,0.623 c0.555,0.188,10.689,3.61,17.948,3.61c2.221,0,4.174-0.321,5.499-1.153c1.074-0.674,1.693-1.637,1.844-2.863 c0.032-0.269-0.159-0.513-0.43-0.547c-0.268-0.03-0.514,0.159-0.545,0.429c-0.114,0.93-0.568,1.633-1.391,2.15 C62.088,25.419,44.914,19.619,44.741,19.56z"/> <path d="M57.99,25.667h-5.772c-0.271,0-0.491,0.22-0.491,0.49c0,1.558,1.352,2.112,2.066,2.188 c0.018,0.001,0.035,0.002,0.052,0.002c2.339,0,4.382-1.745,4.466-1.82c0.156-0.134,0.211-0.351,0.141-0.542 C58.379,25.794,58.193,25.667,57.99,25.667z"/> <polygon points="64.925,72.469 69.068,72.469 69.068,67.18 69.068,63.404 20.258,63.404 20.258,67.18 20.258,72.469 24.402,72.469 "/> <path d="M65.925,76.577h7.89l-0.951-2.784c-0.061-0.174-0.07-0.361-0.03-0.541l1.131-5.07h-2.896v5.289c0,0.552-0.449,1-1,1h-4.145 L65.925,76.577L65.925,76.577z"/> </g> </g>
</svg>